<svg width="62" height="62" viewBox="0 0 62 62" fill="none" xmlns="http://www.w3.org/2000/svg">
<rect x="0.25" y="0.25" width="61.5" height="61.5" rx="4.75" fill="white"/>
<rect x="0.25" y="0.25" width="61.5" height="61.5" rx="4.75" stroke="#E4E4E4" stroke-width="0.5"/>
<path d="M42.8458 17.5735V34.7621C42.8458 35.7088 42.0859 36.4763 41.1486 36.4763H13.5912C12.6539 36.4763 11.894 35.7088 11.894 34.7621V17.5735C11.894 16.6268 12.6539 15.8593 13.5912 15.8593H41.1486C42.0859 15.8593 42.8458 16.6268 42.8458 17.5735Z" fill="#0A76DB"/>
<path d="M39.0032 22.8237V38.7467C39.0032 40.0684 37.9424 41.1398 36.6339 41.1398H20.5961L12.9874 48.2661C12.6063 48.6231 11.9933 48.2923 12.0754 47.7739L13.1241 41.1397H10.6637C9.35521 41.1397 8.29443 40.0683 8.29443 38.7466V22.8237C8.29443 21.5021 9.35521 20.4307 10.6637 20.4307H36.6339C37.9425 20.4307 39.0032 21.502 39.0032 22.8237Z" fill="white"/>
<path d="M52.5258 20.6173L39.244 33.9789L33.6616 36.0316L35.7163 30.4015L48.9982 17.0399C49.9762 16.056 51.5588 16.0592 52.5328 17.0471C53.5071 18.0349 53.5039 19.6335 52.5258 20.6173Z" fill="white"/>
<path d="M51.4241 21.7254L52.5256 20.6173C53.5036 19.6333 53.5068 18.0349 52.5327 17.047C51.5585 16.0592 49.976 16.0559 48.998 17.0398L47.8965 18.1479L51.4241 21.7254Z" fill="#0A76DB"/>
<path d="M13.6372 26.6316H33.6615C34.0659 26.6316 34.394 26.3004 34.394 25.8918C34.394 25.4832 34.066 25.152 33.6615 25.152H13.6372C13.2327 25.152 12.9048 25.4832 12.9048 25.8918C12.9048 26.3004 13.2327 26.6316 13.6372 26.6316ZM34.3939 30.9309C34.3939 30.5224 34.0659 30.191 33.6614 30.191H13.6372C13.2327 30.191 12.9048 30.5223 12.9048 30.9309C12.9048 31.3395 13.2327 31.6707 13.6372 31.6707H33.6615C34.0659 31.6707 34.3939 31.3395 34.3939 30.9309ZM32.3937 35.275C29.1755 34.0894 26.1581 34.0912 23.1733 35.2797C20.3037 36.3952 17.7832 36.4024 15.4679 35.3007C15.1031 35.1265 14.6654 35.2851 14.493 35.6546C14.3206 36.0245 14.4776 36.4652 14.8434 36.6393C17.7382 38.016 20.6849 37.8325 23.7051 36.6581C26.3476 35.6073 29.0255 35.6091 31.8915 36.6649C32.8063 36.9981 33.3017 35.61 32.3937 35.275Z" fill="#000125"/>
<path d="M52.4831 21.7041L53.0424 21.1413C54.277 19.9001 54.3635 17.801 52.9928 16.4762C51.701 15.225 49.7051 15.2851 48.4812 16.5159C48.408 16.5895 43.2645 21.7639 43.5784 21.448V17.5736C43.5784 16.2204 42.4884 15.1194 41.1487 15.1194H13.5914C12.2517 15.1194 11.162 16.2204 11.162 17.5736V19.6907H10.6642C8.95403 19.6907 7.5625 21.0963 7.5625 22.8236V38.7467C7.5625 40.4741 8.95403 41.8796 10.6642 41.8796H12.2657L11.3526 47.6571C11.2653 48.2097 11.5247 48.7371 12.0132 49.0008C12.5006 49.2633 13.0788 49.1901 13.4855 48.8087L20.8838 41.8796H36.6344C38.3446 41.8796 39.7361 40.4741 39.7361 38.7467V37.2162H41.1487C42.4884 37.2162 43.5784 36.1152 43.5784 34.7621V30.6621L51.4449 22.7485L52.6723 23.982L48.4007 28.3702C48.1172 28.6617 48.1211 29.1298 48.4094 29.4163C48.698 29.7027 49.1614 29.699 49.445 29.4076L54.2272 24.4949C54.5098 24.2048 54.5073 23.7389 54.2219 23.4517L52.4831 21.7041ZM39.2457 32.9328L36.7519 30.4034L47.8945 19.1942L50.3883 21.7233L39.2457 32.9328ZM36.0068 31.7442L37.9155 33.68L34.895 34.7906L36.0068 31.7442ZM49.5148 17.5641C50.205 16.8698 51.3258 16.872 52.0139 17.5691C52.7028 18.2681 52.7008 19.3963 52.0089 20.093L51.4263 20.6791L48.9323 18.15L49.5148 17.5641ZM12.6269 17.5736C12.6269 17.0361 13.0596 16.599 13.5914 16.599H41.1487C41.6808 16.599 42.1136 17.0361 42.1136 17.5736V22.9218L39.7361 25.3135V22.8237C39.7361 21.0963 38.3446 19.6907 36.6344 19.6907H12.6269V17.5736ZM36.6344 40.4001H20.5966C20.4121 40.4001 20.2339 40.4705 20.0988 40.5973L12.8836 47.3548L13.8474 41.2566C13.8813 41.0428 13.8206 40.8246 13.6815 40.6598C13.5423 40.495 13.3389 40.4001 13.1243 40.4001H10.6642C9.76159 40.4001 9.02734 39.6584 9.02734 38.7467V22.8236C9.02734 21.9119 9.76159 21.1702 10.6642 21.1702H36.6344C37.537 21.1702 38.2712 21.9119 38.2712 22.8236V26.7871L35.1996 29.8772C35.1028 29.9746 35.0748 30.0531 35.029 30.1456C33.1916 35.6051 32.5583 35.9612 33.1425 36.5534C33.7186 37.1383 34.1598 36.4907 38.2712 35.1236V38.7466C38.2712 39.6584 37.5371 40.4001 36.6344 40.4001ZM42.1136 34.7621C42.1136 35.2995 41.6808 35.7366 41.1487 35.7366H39.7361V34.5193C39.9223 34.346 41.4556 32.7956 42.1136 32.1357V34.7621Z" fill="#000125"/>
</svg>
